# xmcd CD database file
#
# Track frame offsets:
#	150
#	20157
#	33156
#	60202
#	70941
#	87858
#	104590
#	117333
#	134407
#	156069
#	177233
#	198495
#	225985
#	237055
#	249259
#	256326
#	279899
#
# Disc length: 4088 seconds
#
# Revision: 0
# Processed by: cddbd v1.5.2PL0 Copyright (c) Steve Scherf et al.
# Submitted via: CDex 1.51
#
DISCID=d90ff611
DTITLE=Captain Beefheart and The Magic Band - Spotlight Kid Outtakes - CD 2
DYEAR=1971
DGENRE=Blues
TTITLE0=Semi-multicolored Caucasian
TTITLE1=Dual and Abdul
TTITLE2=Open Pins
TTITLE3=Ballerino
TTITLE4=Best Batch Yet #1
TTITLE5=Suzy Murder Wrist
TTITLE6=Obenso Cinco
TTITLE7=The Witch Doctor Life
TTITLE8=Little Scratch #2
TTITLE9=Flaming Autograph
TTITLE10=Love Grip
TTITLE11=No Flower Shal Grow
TTITLE12=Best Batch Yet #2
TTITLE13=Your Love Brought Me To Life #1
TTITLE14=Your Love Brought Me To Life #2
TTITLE15=That Little Girl
TTITLE16=Campfires
EXTD=YEAR: 1971
EXTT0=
EXTT1=
EXTT2=
EXTT3=
EXTT4=
EXTT5=
EXTT6=
EXTT7=
EXTT8=
EXTT9=
EXTT10=
EXTT11=
EXTT12=
EXTT13=
EXTT14=
EXTT15=
EXTT16=
PLAYORDER=
